<svg width="138" height="103" viewBox="0 0 138 103" fill="none" xmlns="http://www.w3.org/2000/svg">
<path d="M99.4171 63.1194C103.075 63.1194 106.05 60.1435 106.05 56.4859C106.05 55.3691 105.145 54.4642 104.029 54.4642C102.912 54.4642 102.007 55.3691 102.007 56.4859C102.007 57.9143 100.845 59.0761 99.4171 59.0761C97.9891 59.0761 96.8272 57.914 96.8272 56.4859C96.8272 55.3691 95.9221 54.4642 94.8057 54.4642C93.6893 54.4642 92.7842 55.3691 92.7842 56.4859C92.7839 60.1435 95.7595 63.1194 99.4171 63.1194Z" fill="#404A7B"/>
<path d="M110.016 51.7796C111.133 51.7796 112.038 50.8747 112.038 49.7579V47.6454C113.036 47.5217 113.808 46.6707 113.808 45.6391C113.808 44.5223 112.903 43.6174 111.787 43.6174H110.016C108.9 43.6174 107.995 44.5223 107.995 45.6391V49.7579C107.995 50.8747 108.9 51.7796 110.016 51.7796Z" fill="#404A7B"/>
<path d="M86.7967 47.6458V49.7583C86.7967 50.875 87.7018 51.7799 88.8183 51.7799C89.9347 51.7799 90.8398 50.875 90.8398 49.7583V45.6395C90.8398 44.5227 89.9347 43.6178 88.8183 43.6178H87.0474C85.931 43.6178 85.0259 44.5227 85.0259 45.6395C85.0259 46.6708 85.7986 47.522 86.7967 47.6458Z" fill="#404A7B"/>
<path d="M129.63 50.1211C130.204 48.9068 130.526 47.5514 130.526 46.1217C130.526 43.7424 129.635 41.5681 128.172 39.9109C128.404 39.5818 128.542 39.1812 128.542 38.7475C128.542 32.7763 128.84 29.2352 127.044 24.0991C126.675 23.0451 125.522 22.4885 124.468 22.858C123.414 23.2265 122.859 24.3799 123.227 25.4339C124.695 29.6312 124.499 32.5426 124.499 36.7258C121.92 36.7258 114.974 36.7258 112.046 36.7258C106.197 36.7258 101.438 31.9671 101.438 26.1178C101.438 25.001 100.533 24.0961 99.4166 24.0961C98.3002 24.0961 97.3951 25.001 97.3951 26.1178C97.3951 31.9671 92.6365 36.7258 86.7874 36.7258H78.004H74.3346V32.9596C74.3346 20.3957 84.5552 10.1741 97.118 10.1741C97.2709 10.1741 97.3951 10.2984 97.3951 10.4512C97.3951 11.5677 98.3002 12.4726 99.4166 12.4726C100.533 12.4726 101.438 11.5677 101.438 10.4512C101.438 10.2984 101.562 10.1741 101.715 10.1741C108.301 10.1744 114.563 13.0241 118.895 17.9926C119.628 18.8344 120.905 18.9212 121.747 18.188C122.588 17.454 122.676 16.1771 121.942 15.3356C116.842 9.48621 109.47 6.13133 101.715 6.13106C100.871 6.13106 100.083 6.37447 99.4169 6.79471C98.7509 6.37447 97.9625 6.13106 97.1183 6.13106C82.3262 6.13106 70.2919 18.1664 70.2919 32.9599V38.7478C70.2919 39.1812 70.4296 39.5821 70.6617 39.9112C69.983 40.6797 69.4272 41.5587 69.0272 42.5189C68.7844 39.5376 67.2804 36.9194 65.0349 35.2066V27.5046C65.0349 12.3405 52.6993 0.00380358 37.5365 0.00380358C33.7717 0.00380358 35.2803 -0.06116 30.0729 0.345868C22.8899 0.906543 16.4619 4.75067 12.5707 10.731L6.48304 8.7851C5.22163 8.38077 3.91198 9.28486 3.84837 10.6143C3.81953 11.2235 3.20958 24.7622 5.67795 34.192C2.315 35.8789 0 39.3586 0 43.3709C0 48.5771 3.89634 52.8905 8.92607 53.5477C10.1921 58.9798 13.1828 63.9108 17.461 67.5678C18.5828 68.5266 19.7798 69.38 21.0331 70.1299H16.7794C9.79018 70.1299 4.10415 75.8167 4.10415 82.8063V100.522C4.10415 101.639 5.00924 102.544 6.12564 102.544H9.48373C10.6001 102.544 11.5052 101.639 11.5052 100.522C11.5052 99.4055 10.6001 98.5006 9.48373 98.5006H8.14712V82.8063C8.14712 78.046 12.0195 74.1733 16.7794 74.1733H22.66C23.6646 80.1342 29.0552 84.6161 35.3528 84.2096C41.0537 83.8422 45.5705 79.5525 46.478 74.1733H52.3594C57.1193 74.1733 60.992 78.046 60.992 82.8063V98.5006H18.9176C17.8012 98.5006 16.8961 99.4055 16.8961 100.522C16.8961 101.639 17.8012 102.544 18.9176 102.544H63.0137C64.1301 102.544 65.0352 101.639 65.0352 100.522V82.8063C65.0352 81.1229 64.7026 79.5164 64.1042 78.0454H67.3521C69.3857 78.0454 71.3252 77.6392 73.098 76.9076C71.8508 78.8363 71.1236 81.1313 71.1236 83.5939V100.522C71.1236 101.639 72.0287 102.544 73.1451 102.544H125.825C126.941 102.544 127.846 101.639 127.846 100.522V83.5939C127.846 81.1617 127.137 78.8932 125.918 76.9793C127.642 77.6645 129.518 78.0454 131.483 78.0454H135.979C137.095 78.0454 138 77.1405 138 76.0238V63.642C138 57.8827 134.662 52.6463 129.63 50.1211ZM86.788 40.7694C92.1608 40.7694 96.8674 37.8626 99.4171 33.5381C101.967 37.8626 106.673 40.7694 112.046 40.7694H121.131C124.082 40.7694 126.483 43.1704 126.483 46.1217C126.483 47.5649 125.907 48.8739 124.975 49.8373C123.911 50.9371 122.435 51.5298 120.917 51.4681C119.895 51.4209 119.006 52.1479 118.838 53.1544C117.3 62.3498 109.346 69.5746 99.4171 69.5746C92.4023 69.5746 85.8497 65.8658 82.324 59.6979C82.2911 59.6146 82.2534 59.5329 82.2095 59.4542C81.3863 57.9776 80.7621 56.4177 80.3454 54.7992C80.337 54.7669 80.3303 54.734 80.3222 54.7017C80.2074 54.2456 80.0982 53.7617 79.9966 53.1542C79.8287 52.1501 78.9363 51.4215 77.9174 51.4678C74.8922 51.5907 72.3511 49.1499 72.3511 46.1212C72.3511 43.1698 74.7521 40.7689 77.7029 40.7689C77.7765 40.7689 77.8498 40.7721 77.9228 40.7748C78.0091 40.7783 78.094 40.7762 78.1781 40.7689H86.788V40.7694ZM99.4503 82.1222C95.6041 82.1222 92.4748 78.9926 92.4748 75.1458V73.2638V72.5842C94.7691 73.2883 97.1649 73.6185 99.4169 73.6185C101.743 73.6185 104.165 73.2654 106.425 72.564V75.1461C106.425 78.8727 103.489 81.9262 99.8085 82.1133C99.6899 82.1192 99.5705 82.1222 99.4503 82.1222ZM83.4717 71.2421C83.4711 71.2421 83.4701 71.2421 83.4693 71.2421C82.0836 71.2427 80.7521 71.4761 79.5077 71.8993C80.757 70.2103 81.6618 68.2527 82.121 66.1305C82.714 66.7621 83.341 67.3656 84.0045 67.9328C85.3708 69.1005 86.8578 70.0995 88.4319 70.9211V71.2421H83.4717ZM110.469 70.8879C112.757 69.6844 114.851 68.1142 116.713 66.1308C117.167 68.2277 118.057 70.1634 119.283 71.8386C116.975 71.0931 115.771 71.2421 110.469 71.2421V70.8879H110.469ZM7.82072 13.4573L12.8634 15.069C13.7822 15.362 14.7811 14.966 15.2479 14.1212C18.3451 8.5177 24.005 4.87467 30.3878 4.3768C35.4698 3.98001 33.9289 4.04686 37.5365 4.04686C50.4697 4.04686 60.992 14.5698 60.992 27.5044V33.3443C59.2254 32.9639 59.7842 33.1154 32.0602 33.1154C30.0446 33.1154 28.114 32.6674 26.3744 31.8585C22.5474 30.0789 19.6451 26.5523 18.795 22.2065C18.4702 20.5461 16.4266 20.0466 15.335 21.2135C12.4189 24.3312 10.3802 28.0243 9.27322 31.8571C7.88325 25.569 7.77086 17.5446 7.82072 13.4573ZM12.5917 51.2708C12.4281 50.2931 11.582 49.5826 10.5988 49.5826C10.5716 49.5826 10.5441 49.5831 10.5166 49.5842C10.4322 49.5877 10.3478 49.5909 10.2627 49.5909C6.83316 49.5909 4.04297 46.8007 4.04297 43.3709C4.04297 39.9988 6.73073 37.273 10.0368 37.1563C10.0449 37.1561 10.0532 37.1561 10.0613 37.1558C10.2117 37.1512 10.3621 37.1512 10.5117 37.1574C10.515 37.1574 10.5182 37.1574 10.5214 37.1577C10.5276 37.1579 10.5338 37.1571 10.54 37.1574C11.5483 37.1887 12.4249 36.4682 12.5917 35.4711C13.048 32.7424 14.0062 30.1465 15.4115 27.7933C15.6123 27.4572 15.8223 27.1259 16.0412 26.8C18.8238 32.9806 25.0454 37.159 32.0602 37.159H59.0928H59.0942C60.0756 37.2043 61.0976 37.5005 61.9787 38.0254C61.9943 38.0348 62.0111 38.041 62.027 38.0499C63.828 39.1392 65.0214 41.1123 65.0214 43.3707C65.0214 46.8005 62.2313 49.5906 58.8017 49.5906C58.7166 49.5906 58.6319 49.5871 58.5476 49.5839C57.5306 49.5475 56.6406 50.2659 56.4725 51.2705C54.6405 62.2263 45.2139 69.8216 34.5321 69.8216C23.7681 69.8218 14.4108 62.1484 12.5917 51.2708ZM34.1639 80.1841C30.2083 79.9862 26.983 76.909 26.5782 72.9848C26.5752 72.9554 26.5736 72.9255 26.5709 72.8958C26.5628 72.8085 26.5561 72.7206 26.551 72.6325C29.2131 73.4821 31.989 73.8649 34.5326 73.8649C37.1242 73.8649 39.9224 73.4686 42.5911 72.6074C42.3466 77.0103 38.5723 80.4043 34.1639 80.1841ZM52.3597 70.1299H48.0318C49.2851 69.38 50.4821 68.5266 51.6039 67.5678C55.8819 63.911 58.8729 58.98 60.1386 53.5477C63.8962 53.0568 67.0206 50.5249 68.3607 47.1048C68.4723 48.1733 68.7636 49.189 69.204 50.1211C64.1713 52.6463 60.8337 57.8824 60.8337 63.642V73.3888C58.5869 71.3645 55.6151 70.1299 52.3597 70.1299ZM64.877 74.0021V63.642C64.877 59.1434 67.6559 55.0782 71.7562 53.3949C73.099 54.4914 74.7159 55.1804 76.3326 55.4179C76.7994 57.3681 77.5344 59.2731 78.422 60.9521V62.9301C78.422 69.035 73.4559 74.0018 67.3515 74.0018H64.877V74.0021ZM123.803 98.5006H75.1663V83.5939C75.1663 79.0126 78.8934 75.2854 83.4744 75.2854H88.4329C88.5073 81.2553 93.3875 86.1655 99.4503 86.1655C105.444 86.1655 110.392 81.3308 110.468 75.2854H115.495C120.076 75.2854 123.803 79.0126 123.803 83.5939V98.5006H123.803ZM133.957 74.0021H131.482C125.378 74.0021 120.412 69.0353 120.412 62.9304V60.9524C121.313 59.2483 122.04 57.3436 122.501 55.4181C124.02 55.1952 125.551 54.5779 126.883 53.5431C126.948 53.4933 127.014 53.4469 127.078 53.3954C131.178 55.0785 133.957 59.1434 133.957 63.642V74.0021Z" fill="#404A7B"/>
<path d="M34.5324 62.1664C38.4891 62.1664 41.708 58.9471 41.708 54.99C41.708 53.8733 40.803 52.9684 39.6866 52.9684C38.5702 52.9684 37.6651 53.8733 37.6651 54.99C37.6651 56.7176 36.2598 58.1231 34.5324 58.1231C32.805 58.1231 31.3994 56.7176 31.3994 54.99C31.3994 53.8733 30.4943 52.9684 29.3779 52.9684C28.2615 52.9684 27.3564 53.8733 27.3564 54.99C27.3567 58.9468 30.5757 62.1664 34.5324 62.1664Z" fill="#404A7B"/>
<path d="M22.6861 40.9114C21.5696 40.9114 20.6646 41.8163 20.6646 42.933V47.4028C20.6646 48.5196 21.5696 49.4245 22.6861 49.4245C23.8025 49.4245 24.7076 48.5196 24.7076 47.4028V42.933C24.7076 41.8165 23.8025 40.9114 22.6861 40.9114Z" fill="#404A7B"/>
<path d="M46.3789 49.4245C47.4952 49.4245 48.4003 48.5196 48.4003 47.4028V42.933C48.4003 41.8163 47.4952 40.9114 46.3789 40.9114C45.2625 40.9114 44.3574 41.8163 44.3574 42.933V47.4028C44.3574 48.5196 45.2625 49.4245 46.3789 49.4245Z" fill="#404A7B"/>
</svg>
