<svg width="139" height="139" viewBox="0 0 139 139" fill="none" xmlns="http://www.w3.org/2000/svg">
<path d="M69.5 65.1562C68.2206 65.1562 67.1833 66.1935 67.1833 67.4729V71.5271H63.4187C62.1393 71.5271 61.1021 72.5644 61.1021 73.8438C61.1021 75.1231 62.1393 76.1604 63.4187 76.1604H67.1833V87.1646C67.1833 88.444 68.2206 89.4813 69.5 89.4813C70.7793 89.4813 71.8166 88.444 71.8166 87.1646V76.1604H75.5812C76.8606 76.1604 77.8979 75.1231 77.8979 73.8438C77.8979 72.5644 76.8606 71.5271 75.5812 71.5271H71.8166V67.4729C71.8166 66.1935 70.7793 65.1562 69.5 65.1562Z" fill="#404A7B"/>
<path d="M129.733 126.66C131.013 126.66 132.05 125.623 132.05 124.343V103.671C135.882 103.671 139 100.553 139 96.7208V94.9576C139 91.8949 136.948 89.1529 134.009 88.2896L107.146 80.3956V76.7966C114.58 75.298 116.326 65.8081 110.372 61.6265L73.4945 35.7244C71.4553 34.2922 68.8189 34.0869 66.6042 35.0998V23.4562C66.6042 22.1769 65.5669 21.1396 64.2875 21.1396H58.2062C56.9289 21.1396 55.8896 20.1003 55.8896 18.8229V17.6646C55.8896 16.3872 56.9289 15.3479 58.2062 15.3479H64.2875C65.5669 15.3479 66.6042 14.3106 66.6042 13.0312V6.95C66.6042 5.67265 67.6435 4.63333 68.9208 4.63333H70.0792C71.3565 4.63333 72.3958 5.67265 72.3958 6.95V13.0312C72.3958 14.3106 73.4331 15.3479 74.7125 15.3479H80.7937C82.0711 15.3479 83.1104 16.3872 83.1104 17.6646V18.8229C83.1104 20.1003 82.0711 21.1396 80.7937 21.1396H74.7125C73.4331 21.1396 72.3958 22.1769 72.3958 23.4562V27.9402C72.3958 29.2195 73.4331 30.2568 74.7125 30.2568C75.9919 30.2568 77.0292 29.2195 77.0292 27.9402V25.7729H80.7937C84.6261 25.7729 87.7437 22.6553 87.7437 18.8229V17.6646C87.7437 13.8325 84.6261 10.7146 80.7937 10.7146H77.0292V6.95C77.0292 3.11794 73.9115 0 70.0792 0H68.9208C65.0885 0 61.9708 3.11794 61.9708 6.95V10.7146H58.2062C54.3739 10.7146 51.2562 13.8325 51.2562 17.6646V18.8229C51.2562 22.6553 54.3739 25.7729 58.2062 25.7729H61.9708C61.9708 40.5066 61.9413 39.5953 62.051 40.0071C62.3621 41.1767 63.5071 41.894 64.6825 41.6913C65.3784 41.5708 65.575 41.3372 68.1685 39.5157C68.9651 38.9562 70.0351 38.9562 70.8315 39.5157L107.709 65.4177C108.773 66.1654 109.374 67.3875 109.317 68.6871C109.185 71.6817 105.804 73.3448 103.351 71.6224L70.8318 48.7812C70.0328 48.22 68.9675 48.22 68.1688 48.7812L35.6489 71.6226C34.4983 72.4309 33.058 72.5429 31.7962 71.9221C29.1709 70.6305 28.9699 67.0487 31.2906 65.4183L56.8345 47.4766C57.8816 46.7411 58.1341 45.2963 57.3986 44.2492C56.6633 43.2021 55.2183 42.9496 54.1712 43.6851L28.6273 61.6268C22.6807 65.8035 24.4098 75.2946 31.8542 76.7949V123.559C31.8542 124.838 32.8915 125.875 34.1708 125.875C35.4502 125.875 36.4875 124.838 36.4875 123.559V76.3918C37.8847 75.8462 35.4705 77.41 69.5 53.5083C103.544 77.4198 101.121 75.8477 102.512 76.3909V134.367H71.8167V109.565C71.8167 108.286 70.7794 107.249 69.5 107.249C68.2206 107.249 67.1833 108.286 67.1833 109.565V134.367H56.1792V113.806C56.1792 106.461 62.155 100.485 69.5 100.485C76.845 100.485 82.8208 106.461 82.8208 113.806V125.67C82.8208 126.949 83.8581 127.987 85.1375 127.987C86.4169 127.987 87.4542 126.949 87.4542 125.67V113.806C87.4542 103.906 79.4 95.8521 69.5 95.8521C59.6 95.8521 51.5458 103.906 51.5458 113.806V134.367H11.5833V103.671H22.7835C24.0629 103.671 25.1002 102.634 25.1002 101.354C25.1002 100.075 24.0629 99.0375 22.7835 99.0375H6.95C5.67265 99.0375 4.63333 97.9982 4.63333 96.7208V94.9576C4.63333 93.9368 5.31733 93.0226 6.29699 92.7347L24.4098 87.4125C25.6374 87.0516 26.3402 85.7644 25.9794 84.5366C25.6189 83.3091 24.3314 82.6063 23.1035 82.9671L4.99068 88.2893C2.05228 89.1529 0 91.8946 0 94.9576V96.7208C0 100.553 3.11765 103.671 6.95 103.671V134.367H2.31667C1.03729 134.367 0 135.404 0 136.683C0 137.963 1.03729 139 2.31667 139H136.683C137.963 139 139 137.963 139 136.683C139 135.404 137.963 134.367 136.683 134.367H107.146V85.225L132.703 92.7347C133.682 93.0226 134.367 93.9365 134.367 94.9576V96.7208C134.367 97.9982 133.327 99.0375 132.05 99.0375H117.319C116.039 99.0375 115.002 100.075 115.002 101.354C115.002 102.634 116.039 103.671 117.319 103.671H127.417V124.343C127.417 125.623 128.454 126.66 129.733 126.66Z" fill="#404A7B"/>
</svg>
