<svg width="50" height="50" viewBox="0 0 50 50" fill="none" xmlns="http://www.w3.org/2000/svg">
<path d="M25 36.6536C24.4606 36.6536 24.0234 37.0908 24.0234 37.6301C24.0234 37.6314 24.0234 37.6328 24.0234 37.634C24.0234 37.6353 24.0234 37.6367 24.0234 37.6379V37.6458C24.0234 38.1851 24.4606 38.6223 25 38.6223C25.5394 38.6223 25.9766 38.1851 25.9766 37.6458C25.9766 37.6444 25.9766 37.6432 25.9766 37.6418C25.9766 37.6405 25.9766 37.6393 25.9766 37.6379C25.9766 37.6366 25.9766 37.6353 25.9766 37.634C25.9766 37.6328 25.9766 37.6314 25.9766 37.6301C25.9766 37.0908 25.5394 36.6536 25 36.6536Z" fill="#404A7B"/>
<path d="M40.4297 0H9.57031C4.29316 0 0 4.29316 0 9.57031V40.4297C0 45.7068 4.29316 50 9.57031 50H25C25.5394 50 25.9766 49.5628 25.9766 49.0234V41.4551C25.9766 40.9157 25.5394 40.4785 25 40.4785C24.4606 40.4785 24.0234 40.9157 24.0234 41.4551V48.0469H9.57031C5.37021 48.0469 1.95312 44.6298 1.95312 40.4297V9.57031C1.95312 5.37021 5.37021 1.95312 9.57031 1.95312H40.4297C44.6298 1.95312 48.0469 5.37021 48.0469 9.57031V40.4297C48.0469 44.6298 44.6298 48.0469 40.4297 48.0469H34.1797V30.8106H39.8419C40.3435 30.8106 40.7634 30.4308 40.8136 29.9318L41.5158 22.9538C41.5435 22.6791 41.4536 22.4057 41.2685 22.201C41.0833 21.9963 40.8201 21.8795 40.5441 21.8795H34.1797V18.2153C34.1797 17.5521 34.3909 17.3056 34.9591 17.3056H40.5003C41.0396 17.3056 41.4769 16.8684 41.4769 16.329V9.52627C41.4769 8.98691 41.0396 8.54971 40.5003 8.54971H33.2232C29.0999 8.54971 26.9132 10.3608 25.8049 11.8802C24.2548 14.005 24.0233 16.5144 24.0233 17.821V21.9232H19.2382C18.6988 21.9232 18.2616 22.3604 18.2616 22.8998V29.834C18.2616 30.3733 18.6988 30.8105 19.2382 30.8105H24.0233V33.5938C24.0233 34.1331 24.4605 34.5703 24.9999 34.5703C25.5393 34.5703 25.9765 34.1331 25.9765 33.5938V29.834C25.9765 29.2946 25.5393 28.8574 24.9999 28.8574H20.2147V23.8763H24.9999C25.5393 23.8763 25.9765 23.4391 25.9765 22.8997V17.8209C25.9765 15.6205 26.6826 10.5027 33.2232 10.5027H39.5237V15.3523H34.9591C33.6985 15.3523 32.2266 16.1021 32.2266 18.2152V22.856C32.2266 23.3953 32.6638 23.8325 33.2031 23.8325H39.4644L38.9587 28.8574H33.2031C32.6638 28.8574 32.2266 29.2946 32.2266 29.834V49.0234C32.2266 49.5628 32.6638 50 33.2031 50H40.4297C45.7068 50 50 45.7068 50 40.4297V9.57031C50 4.29316 45.7068 0 40.4297 0Z" fill="#404A7B"/>
<path d="M5.66406 10.0098C5.12471 10.0098 4.6875 10.447 4.6875 10.9863V19.1406C4.6875 19.68 5.12471 20.1172 5.66406 20.1172C6.20342 20.1172 6.64062 19.68 6.64062 19.1406V10.9863C6.64062 10.447 6.20342 10.0098 5.66406 10.0098Z" fill="#404A7B"/>
<path d="M5.66406 22.4006C5.12471 22.4006 4.6875 22.8378 4.6875 23.3772V23.3887C4.6875 23.9281 5.12471 24.3653 5.66406 24.3653C6.20342 24.3653 6.64062 23.9281 6.64062 23.3887V23.3772C6.64062 22.8378 6.20342 22.4006 5.66406 22.4006Z" fill="#404A7B"/>
</svg>
