<svg width="141" height="142" viewBox="0 0 141 142" fill="none" xmlns="http://www.w3.org/2000/svg">
<path d="M139.918 116.484L130.705 107.27C129.892 106.458 128.575 106.458 127.763 107.27C126.951 108.082 126.951 109.4 127.763 110.212L136.977 119.426C137.383 119.832 137.915 120.035 138.448 120.035C138.98 120.035 139.512 119.832 139.918 119.426C140.731 118.613 140.731 117.296 139.918 116.484Z" fill="#404A7B"/>
<path d="M52.214 92.0115C52.214 93.1603 53.1453 94.0916 54.2939 94.0916C55.4426 94.0916 56.3738 93.1603 56.3738 92.0115V88.8032C59.439 87.6356 61.6232 84.6675 61.6232 81.1971C61.6232 77.4463 59.0718 74.2821 55.6142 73.3441C56.3796 72.1038 56.8228 70.6445 56.8228 69.083C56.8228 64.6056 53.188 60.9616 48.7143 60.9463C49.3768 59.7693 49.7567 58.4128 49.7567 56.9687C49.7567 52.4818 46.1066 48.8314 41.6202 48.8314H37.6182C38.2804 47.6544 38.6601 46.2982 38.6601 44.8543C38.6601 40.3675 35.01 36.7171 30.5235 36.7171H30.4226C29.274 36.7171 28.3427 37.6484 28.3427 38.7971C28.3427 39.9459 29.274 40.8772 30.4226 40.8772H30.5235C32.7163 40.8772 34.5003 42.6614 34.5003 44.8543C34.5003 47.0473 32.7163 48.8314 30.5235 48.8314H21.0051C18.8124 48.8314 17.0284 47.0473 17.0284 44.8543C17.0284 42.815 18.6169 41.0758 20.6446 40.8947C21.7886 40.7924 22.6333 39.782 22.5312 38.6377C22.4292 37.4934 21.4195 36.6494 20.2744 36.7509C19.1801 36.8488 18.1562 37.1567 17.2389 37.6312L3.55044 23.9415C2.73817 23.1292 1.42119 23.1292 0.609199 23.9415C-0.203066 24.7539 -0.203066 26.071 0.609199 26.883L14.1587 40.434C13.3403 41.707 12.8689 43.2241 12.8689 44.8543C12.8689 49.3412 16.519 52.9916 21.0054 52.9916H22.0332C21.3709 54.1683 20.9913 55.5248 20.9913 56.9687C20.9913 61.4555 24.6413 65.1059 29.1278 65.1059H29.2421C28.5798 66.283 28.2002 67.6392 28.2002 69.083C28.2002 73.5699 31.8502 77.2203 36.3367 77.2203H38.9984C38.3362 78.397 37.9565 79.7535 37.9565 81.1974C37.9565 85.6842 41.6066 89.3346 46.093 89.3346H52.2146V92.0115H52.214ZM25.1505 56.9687C25.1505 54.7757 26.9345 52.9916 29.1272 52.9916H41.6199C43.8127 52.9916 45.5966 54.7757 45.5966 56.9687C45.5966 59.1616 43.8127 60.9458 41.6199 60.9458H29.1272C26.9345 60.9458 25.1505 59.1616 25.1505 56.9687ZM32.3594 69.083C32.3594 66.8901 34.1434 65.1059 36.3361 65.1059H48.6862C50.879 65.1059 52.663 66.8901 52.663 69.083C52.663 71.276 50.879 73.0601 48.6862 73.0601H36.3361C34.1431 73.0601 32.3594 71.276 32.3594 69.083ZM42.1157 81.1974C42.1157 79.0044 43.8997 77.2203 46.0925 77.2203H53.4866C55.6794 77.2203 57.4634 79.0044 57.4634 81.1974C57.4634 83.3903 55.6794 85.1745 53.4866 85.1745H46.0925C43.8994 85.1742 42.1157 83.3903 42.1157 81.1974Z" fill="#404A7B"/>
<path d="M127.205 87.3066C127.224 84.7988 126.257 82.4409 124.484 80.6675L112.424 68.6059C110.257 66.439 107.59 64.7383 104.711 63.6875L88.4645 57.759L82.5369 41.5114C81.4864 38.6323 79.7859 35.9648 77.6189 33.7977L67.5938 23.7717C63.9701 20.1477 58.0738 20.1477 54.4501 23.7717C53.4248 24.797 52.673 26.0337 52.2215 27.3708L26.9198 0.649897C26.1298 -0.184351 24.8133 -0.220128 23.9794 0.569745C23.1453 1.35962 23.1095 2.67617 23.8993 3.51041L74.3693 56.811C74.5909 57.0451 74.8637 57.2246 75.1666 57.3349L103.286 67.5958C105.599 68.44 107.741 69.8065 109.483 71.5479L121.543 83.6093C122.523 84.5889 123.056 85.891 123.046 87.2763C123.036 88.6614 122.483 89.9557 121.489 90.9206C119.486 92.8654 116.252 92.8393 114.28 90.8621L104.219 80.7818C103.624 80.1861 102.729 80.0072 101.952 80.3292C101.174 80.6509 100.667 81.4097 100.667 82.2512V117.93C100.667 120.123 98.8828 121.907 96.6901 121.907C94.4973 121.907 92.7133 120.123 92.7133 117.93V105.376C92.7133 104.227 91.7821 103.296 90.6334 103.296C89.4848 103.296 88.5536 104.227 88.5536 105.376V114.688C88.5536 115.777 88.1218 116.793 87.3378 117.55C86.5544 118.306 85.5211 118.701 84.4298 118.662C82.3181 118.587 80.6001 116.739 80.6001 114.542V101.217C80.6001 100.069 79.6688 99.1372 78.5202 99.1372C77.3715 99.1372 76.4403 100.069 76.4403 101.217V111.437C76.4403 113.63 74.6563 115.414 72.4636 115.414C70.2708 115.414 68.4868 113.63 68.4868 111.437V98.2089C68.4868 97.0602 67.5556 96.1289 66.4069 96.1289C65.2583 96.1289 64.327 97.0602 64.327 98.2089V104.926C64.327 106.016 63.8952 107.032 63.1115 107.789C62.3284 108.545 61.294 108.94 60.2036 108.901C58.0918 108.826 56.3738 106.978 56.3738 104.781V101.976C56.3738 100.827 55.4426 99.896 54.2939 99.896C53.1453 99.896 52.214 100.827 52.214 101.976V104.781C52.214 109.192 55.7321 112.905 60.056 113.058C61.5849 113.113 63.0566 112.75 64.3478 112.019C64.6471 116.235 68.1729 119.574 72.4638 119.574C74.2367 119.574 75.8784 119.004 77.2165 118.038C78.4852 120.761 81.1758 122.709 84.2823 122.82C86.1001 122.886 87.8436 122.358 89.294 121.32C90.5821 124.119 93.413 126.067 96.6901 126.067C97.6174 126.067 98.5079 125.909 99.3387 125.622L115.106 141.391C115.512 141.797 116.044 142 116.577 142C117.109 142 117.641 141.797 118.047 141.391C118.859 140.578 118.859 139.261 118.047 138.449L102.844 123.244C104.078 121.817 104.827 119.96 104.827 117.93V87.2788L120.719 103.166C121.125 103.572 121.657 103.775 122.189 103.775C122.721 103.775 123.254 103.572 123.66 103.166C124.472 102.354 124.472 101.036 123.66 100.224L119.766 96.3299C121.456 95.991 123.068 95.1848 124.386 93.9051C126.186 92.1579 127.187 89.8146 127.205 87.3066ZM55.9673 31.2461C55.6744 29.5931 56.2071 27.8986 57.3919 26.7138C59.3938 24.7122 62.6509 24.7119 64.6529 26.7138L74.6779 36.7397C76.4189 38.4812 77.7856 40.6242 78.6294 42.9378L83.3569 55.8955L77.0529 53.5952C77.0526 53.595 55.9728 31.2772 55.9673 31.2461Z" fill="#404A7B"/>
</svg>
