<svg width="50" height="50" viewBox="0 0 50 50" fill="none" xmlns="http://www.w3.org/2000/svg">
<path d="M35.0888 0H14.9108C6.72329 0 0.0622559 6.66094 0.0622559 14.8485V35.1516C0.0622559 43.3391 6.72329 50 14.9108 50H35.0888C43.2762 50 49.9373 43.3391 49.9373 35.1516V14.8485C49.9372 6.66094 43.2762 0 35.0888 0ZM47.9452 35.1515C47.9452 42.2406 42.1779 48.0079 35.0888 48.0079H14.9108C7.82163 48.0079 2.05435 42.2406 2.05435 35.1516V14.8485C2.05435 7.75937 7.82163 1.99209 14.9108 1.99209H35.0888C42.1779 1.99209 47.9452 7.75937 47.9452 14.8485V35.1515Z" fill="#404A7B"/>
<path d="M35.0888 5.69287H14.9107C9.86211 5.69287 5.75488 9.8 5.75488 14.8486V35.1518C5.75488 40.2003 9.86211 44.3075 14.9107 44.3075H35.0888C40.1373 44.3075 44.2445 40.2003 44.2445 35.1518V14.8486C44.2445 9.8001 40.1373 5.69287 35.0888 5.69287ZM42.2525 35.1516C42.2525 39.1017 39.0389 42.3153 35.0888 42.3153H14.9107C10.9605 42.3153 7.74688 39.1017 7.74688 35.1516V14.8485C7.74688 10.8984 10.9605 7.68477 14.9107 7.68477V7.68486H35.0888C39.0389 7.68486 42.2525 10.8985 42.2525 14.8486V35.1516Z" fill="#404A7B"/>
<path d="M24.9999 12C17.9016 12 12.1267 17.7749 12.1267 24.8732C12.1267 31.9716 17.9015 37.7464 24.9999 37.7464C32.0982 37.7464 37.873 31.9716 37.873 24.8732C37.873 17.7749 32.0981 12 24.9999 12ZM24.9999 35.7543C19 35.7543 14.1188 30.873 14.1188 24.8732C14.1188 18.8733 19 13.9921 24.9999 13.9921C30.9998 13.9921 35.8809 18.8733 35.8809 24.8732C35.8809 30.873 30.9997 35.7543 24.9999 35.7543Z" fill="#404A7B"/>
<path d="M24.9999 17.5527C20.9636 17.5527 17.6797 20.8366 17.6797 24.8729C17.6797 28.9093 20.9636 32.1932 24.9999 32.1932C29.0363 32.1932 32.3201 28.9093 32.3201 24.8729C32.3201 20.8366 29.0362 17.5527 24.9999 17.5527ZM24.9999 30.2012C22.0619 30.2012 19.6717 27.8109 19.6717 24.8729C19.6717 21.935 22.0619 19.5447 24.9999 19.5447C27.9379 19.5447 30.3281 21.9349 30.3281 24.8729C30.3281 27.8109 27.9379 30.2012 24.9999 30.2012Z" fill="#404A7B"/>
<path d="M37.1568 9.75049C35.4513 9.75049 34.0637 11.138 34.0637 12.8436C34.0637 14.5491 35.4512 15.9365 37.1568 15.9365C38.8622 15.9365 40.2498 14.5491 40.2498 12.8436C40.2498 11.138 38.8622 9.75049 37.1568 9.75049ZM37.1568 13.9444C36.5498 13.9444 36.0558 13.4506 36.0558 12.8436C36.0558 12.2364 36.5498 11.7426 37.1568 11.7426C37.7638 11.7426 38.2577 12.2365 38.2577 12.8436C38.2578 13.4506 37.7639 13.9444 37.1568 13.9444Z" fill="#404A7B"/>
<path d="M23.4066 45.2192H14.0441C13.494 45.2192 13.0481 45.6651 13.0481 46.2152C13.0481 46.7653 13.494 47.2112 14.0441 47.2112H23.4066C23.9567 47.2112 24.4026 46.7653 24.4026 46.2152C24.4026 45.6651 23.9567 45.2192 23.4066 45.2192Z" fill="#404A7B"/>
<path d="M27.1911 45.2192H26.5934C26.0434 45.2192 25.5974 45.6651 25.5974 46.2152C25.5974 46.7653 26.0434 47.2112 26.5934 47.2112H27.1911C27.7412 47.2112 28.1871 46.7653 28.1871 46.2152C28.1871 45.6651 27.7411 45.2192 27.1911 45.2192Z" fill="#404A7B"/>
</svg>
