<svg width="50" height="50" viewBox="0 0 50 50" fill="none" xmlns="http://www.w3.org/2000/svg">
<path d="M39.9535 6.19396C35.9593 2.19971 30.6487 0 25 0C19.3514 0 14.0406 2.19971 10.0465 6.19396C6.05225 10.1883 3.85254 15.4989 3.85254 21.1474C3.85254 32.5744 14.6571 42.0788 20.4617 47.1849C21.2683 47.8944 21.9649 48.5072 22.5199 49.0256C23.2152 49.6751 24.1077 49.9999 24.9999 49.9999C25.8924 49.9999 26.7847 49.6751 27.4801 49.0256C28.0351 48.5071 28.7317 47.8944 29.5383 47.1849C35.3429 42.0787 46.1474 32.5744 46.1474 21.1474C46.1474 15.4989 43.9477 10.1883 39.9535 6.19396ZM27.6038 44.9858C26.7794 45.7109 26.0676 46.3372 25.4807 46.8853C25.2111 47.137 24.7888 47.1371 24.5191 46.8853C23.9323 46.337 23.2204 45.7108 22.396 44.9857C16.939 40.1854 6.78126 31.25 6.78126 21.1475C6.78126 11.1018 14.954 2.92901 24.9998 2.92901C35.0456 2.92901 43.2183 11.1018 43.2183 21.1475C43.2184 31.25 33.0608 40.1854 27.6038 44.9858Z" fill="#404A7B"/>
<path d="M25.0001 11.0288C19.8613 11.0288 15.6807 15.2094 15.6807 20.3482C15.6807 25.487 19.8613 29.6675 25.0001 29.6675C30.1389 29.6675 34.3195 25.487 34.3195 20.3482C34.3195 15.2094 30.1389 11.0288 25.0001 11.0288ZM25.0001 26.7385C21.4764 26.7385 18.6096 23.8717 18.6096 20.3481C18.6096 16.8244 21.4764 13.9576 25.0001 13.9576C28.5239 13.9576 31.3906 16.8244 31.3906 20.3481C31.3906 23.8717 28.5239 26.7385 25.0001 26.7385Z" fill="#404A7B"/>
</svg>
