<svg width="50" height="50" viewBox="0 0 50 50" fill="none" xmlns="http://www.w3.org/2000/svg">
<g clip-path="url(#clip0_29:210)">
<path d="M22.7038 38.1177C22.3227 38.4984 22.3227 39.1168 22.7038 39.4982C23.0856 39.8793 23.7036 39.8793 24.0843 39.4982C24.4662 39.1168 24.4662 38.4984 24.0843 38.1177C23.7036 37.7358 23.0856 37.7358 22.7038 38.1177Z" fill="#404A7B"/>
<path d="M47.7468 36.4214L40.3325 30.1168C40.2982 30.0878 40.262 30.0611 40.2242 30.0371C38.2791 28.7988 35.7816 29.0731 34.1508 30.7035L30.1084 34.7456C29.8284 35.0259 29.4107 35.1087 29.0445 34.9577C24.4798 33.0694 20.7299 30.2267 17.8991 26.5092C15.7403 23.6745 14.9621 21.422 14.8595 21.1046C14.8473 21.0367 14.8278 20.9692 14.8004 20.9032C14.6489 20.537 14.7317 20.12 15.0125 19.84L19.0545 15.7968C20.6853 14.166 20.9592 11.6685 19.721 9.72343C19.711 9.70779 19.7007 9.69253 19.6901 9.67727L14.3358 2.23671C12.6512 -0.376742 8.98183 -0.771563 6.7796 1.43028L5.97012 2.23976C5.96974 2.24052 5.96898 2.24128 5.96822 2.24167L3.0782 5.13168C-0.367997 8.57826 -0.931809 13.7571 1.44818 20.1093C3.48675 25.5506 7.56772 31.5057 12.9392 36.8772C18.4377 42.3757 24.5538 46.5322 30.1606 48.5811C35.7103 50.6086 41.6135 50.8585 45.7917 46.6798L48.5173 43.9546C50.7097 41.7619 50.327 38.1166 47.7468 36.4214ZM39.1225 31.6511L46.5303 37.9503C46.5642 37.9793 46.6005 38.006 46.6382 38.03C48.2206 39.0375 48.4601 41.25 47.136 42.5737L46.9339 42.7763L34.2992 33.3166L35.5317 32.0844C36.4949 31.1208 37.9628 30.9465 39.1225 31.6511ZM12.7042 3.30978C12.7141 3.32542 12.7244 3.34106 12.7351 3.35594L18.0871 10.7938C18.8142 11.9577 18.646 13.4435 17.6736 14.4159L16.4792 15.6107L7.93126 3.04046L8.16052 2.8112C9.48994 1.48178 11.7006 1.73317 12.7042 3.30978ZM30.8305 46.7466C25.4854 44.7935 19.6218 40.798 14.3201 35.4963C9.14128 30.3178 5.21939 24.6099 3.27657 19.4242C1.81821 15.5317 0.839736 10.132 4.45912 6.51298L6.52554 4.44618L15.0735 17.0164L13.6319 18.4587C12.8118 19.2773 12.5539 20.4889 12.9632 21.5677C13.2715 22.8326 14.6898 25.4583 16.1207 27.3931C18.2264 30.2404 22.0483 34.1768 28.2979 36.7624C29.3962 37.2167 30.6485 36.9672 31.4893 36.1269L32.9042 34.7116L45.5388 44.1713L44.4108 45.2989C40.5309 49.1792 34.8844 48.2278 30.8305 46.7466Z" fill="#404A7B"/>
<path d="M20.8709 35.7856C19.8394 34.8811 18.0553 33.3255 17.1157 32.3589C14.8116 29.9911 12.3943 27.1209 10.9569 25.0472C10.6498 24.604 10.0414 24.4933 9.59809 24.8008C9.15482 25.1079 9.04457 25.7163 9.35166 26.1596C11.1644 28.7749 13.8278 31.7802 15.7157 33.7203C16.7075 34.7411 18.5069 36.3105 19.5831 37.2539C19.9878 37.6086 20.6046 37.5697 20.9613 37.1635C21.3168 36.7583 21.2764 36.1411 20.8709 35.7856Z" fill="#404A7B"/>
</g>
<defs>
<clipPath id="clip0_29:210">
<rect width="50" height="50" fill="white"/>
</clipPath>
</defs>
</svg>
