<svg width="50" height="50" viewBox="0 0 50 50" fill="none" xmlns="http://www.w3.org/2000/svg">
<g clip-path="url(#clip0_29:214)">
<path d="M37.6239 11.9061L17.0606 24.5711C15.8969 25.2895 15.3462 26.7083 15.7211 28.0206L17.9446 35.8331C18.1345 36.4993 18.7273 36.942 19.4093 36.942C19.4473 36.942 19.4857 36.9407 19.5241 36.9378C20.2532 36.8849 20.8302 36.3418 20.9272 35.618L21.5053 31.3342C21.5832 30.7578 21.861 30.2217 22.2866 29.8254L39.2559 14.0516C39.7687 13.5761 39.8364 12.7975 39.4139 12.2406C38.9906 11.6831 38.2216 11.539 37.6239 11.9061ZM20.9298 28.3669C20.1673 29.0767 19.6705 30.0358 19.5311 31.0676L19.2507 33.1455L17.6367 27.4744C17.5056 27.0151 17.6988 26.5183 18.106 26.2669L33.1702 16.9889L20.9298 28.3669Z" fill="#404A7B"/>
<path d="M49.1868 3.65037C48.5443 3.10584 47.6578 2.95593 46.8725 3.25925L1.47293 20.7731C0.573806 21.1199 -0.00431857 21.9665 0.000271271 22.9299C0.00495877 23.8941 0.59158 24.736 1.49597 25.0749L12.1005 29.0328L16.2371 42.336C16.4642 43.0674 17.0376 43.6356 17.7706 43.8561C18.5032 44.0764 19.2944 43.9189 19.8858 43.4352L26.0518 38.4086C26.3479 38.1672 26.7708 38.1553 27.08 38.3798L38.2013 46.4541C38.6014 46.7449 39.0736 46.8946 39.5513 46.8946C39.831 46.8946 40.1127 46.8432 40.383 46.7387C41.114 46.456 41.6457 45.8294 41.8049 45.0627L49.9522 5.87234C50.1233 5.04715 49.8301 4.19578 49.1868 3.65037ZM48.0018 5.46756L39.8546 44.6578C39.8251 44.7994 39.7231 44.8583 39.6649 44.8808C39.6063 44.9035 39.4906 44.9286 39.3722 44.8425L28.2505 36.7677C27.7533 36.4068 27.1687 36.2276 26.5852 36.2276C25.9487 36.2276 25.3131 36.441 24.7935 36.8642L18.6262 41.8921C18.5164 41.9819 18.4024 41.9659 18.3444 41.9484C18.286 41.9308 18.1818 41.881 18.1394 41.7447L13.8577 27.9746C13.7662 27.6803 13.5435 27.445 13.2549 27.3372L2.19383 23.209C2.0282 23.1469 1.99295 23.0177 1.99246 22.9202C1.99197 22.8235 2.02595 22.6949 2.19002 22.6316L47.5897 5.11785C47.5899 5.11775 47.5902 5.11765 47.5905 5.11756C47.738 5.06062 47.847 5.12605 47.899 5.17C47.9511 5.21443 48.0342 5.31209 48.0018 5.46756Z" fill="#404A7B"/>
<path d="M41.7461 24.6235C41.2084 24.5067 40.6782 24.848 40.5615 25.3856L40.4101 26.0829C40.2934 26.6205 40.6346 27.1508 41.1722 27.2675C41.2434 27.283 41.3144 27.2904 41.3845 27.2904C41.843 27.2904 42.2556 26.9718 42.357 26.5055L42.5083 25.8083C42.6249 25.2707 42.2836 24.7403 41.7461 24.6235Z" fill="#404A7B"/>
<path d="M40.7503 29.2111C40.212 29.0944 39.6821 29.4356 39.5655 29.9732L37.2746 40.5251C37.1579 41.0627 37.4991 41.593 38.0366 41.7097C38.1079 41.7252 38.1789 41.7326 38.2489 41.7326C38.7075 41.7326 39.12 41.414 39.2214 40.9477L41.5123 30.3958C41.629 29.8582 41.2878 29.3278 40.7503 29.2111Z" fill="#404A7B"/>
</g>
<defs>
<clipPath id="clip0_29:214">
<rect width="50" height="50" fill="white"/>
</clipPath>
</defs>
</svg>
