<svg width="50" height="50" viewBox="0 0 50 50" fill="none" xmlns="http://www.w3.org/2000/svg">
<path d="M41.9328 22.1917C41.9946 14.9317 35.8363 8.27954 28.2064 7.36304L26.6573 7.17446C26.6174 7.16958 26.5771 7.16724 26.537 7.16724C24.9557 7.16724 23.8564 8.09165 23.5962 9.64009C23.4139 10.7259 23.7475 11.4598 24.0597 11.8844C24.7945 12.8835 25.9714 13.0447 26.7492 13.151L26.7647 13.1531C26.9382 13.1771 27.102 13.1996 27.217 13.2255C33.2691 14.5778 35.0929 16.4784 36.0871 22.4687C36.1043 22.5736 36.115 22.748 36.1253 22.9166C36.1518 23.3529 36.196 24.0833 36.5275 24.7543C36.9867 25.6837 37.8517 26.1956 38.9631 26.1956C39.1546 26.1956 39.3574 26.1795 39.5652 26.1478C40.5986 25.9908 41.3583 25.4045 41.7045 24.4975C41.9538 23.8447 41.9366 23.1804 41.9227 22.7723L41.9326 22.2005C41.9327 22.1976 41.9327 22.1947 41.9328 22.1917ZM39.9308 22.815C39.9673 23.8811 39.7883 24.0991 39.2654 24.1786C39.1562 24.1951 39.0544 24.2036 38.9627 24.2036C38.4434 24.2036 38.1904 24.0646 38.1134 22.7959C38.1 22.5765 38.0864 22.3498 38.0521 22.1428C37.4615 18.5845 36.5433 16.3712 34.9816 14.742C33.4234 13.1164 31.2312 12.0814 27.6528 11.2819C27.4573 11.2379 27.253 11.2098 27.0368 11.1799L27.0202 11.1778C26.495 11.1059 25.8996 11.0244 25.6645 10.7044C25.6187 10.6423 25.4796 10.4531 25.5606 9.97036C25.6752 9.28804 26.0653 9.16899 26.4812 9.16001L27.9671 9.34077C34.6212 10.1401 39.9915 15.8947 39.9407 22.1703L39.9304 22.7636C39.93 22.7806 39.9302 22.798 39.9308 22.815Z" fill="#404A7B"/>
<path d="M49.3544 22.551L49.3537 22.5354C49.3468 22.3794 49.3401 22.2321 49.3417 22.1185C49.4088 16.6826 47.143 11.151 43.1253 6.94209C39.1073 2.73301 33.688 0.21377 28.2478 0.0302734L27.0449 0.000292969C27.0367 9.76562e-05 27.0284 0 27.0201 0C25.2148 0 24.0294 1.11113 23.9266 2.9001C23.8619 4.03008 24.352 4.91602 25.3064 5.39482C25.9786 5.73203 26.7278 5.78672 27.1766 5.81943C27.338 5.83105 27.5051 5.84316 27.6168 5.86025C37.7605 7.42021 42.2165 12.0117 43.5093 22.2362C43.5254 22.3635 43.5286 22.5657 43.5316 22.762C43.5393 23.2322 43.552 24.0192 43.8751 24.7448C44.3213 25.7463 45.2191 26.3105 46.4108 26.3334L46.4684 26.3341C46.4723 26.3342 46.4763 26.3342 46.4801 26.3342C47.332 26.3342 48.0564 26.0474 48.5749 25.5048C49.4465 24.5932 49.391 23.364 49.3544 22.551ZM47.135 24.1285C47.0847 24.1813 46.9318 24.3409 46.4855 24.3423L46.4418 24.3418C45.8123 24.3297 45.5457 24.1029 45.5234 22.7299C45.5194 22.4806 45.5153 22.2229 45.4855 21.9867C44.7698 16.3268 43.1207 12.3351 40.2959 9.4248C37.4703 6.51367 33.5376 4.75547 27.919 3.89131C27.7278 3.86201 27.5204 3.84707 27.3202 3.83262C25.9443 3.73223 25.8899 3.45615 25.9152 3.01406C25.9638 2.17109 26.3869 1.99414 27.0085 1.99209L28.1895 2.02158C38.524 2.37041 47.4774 11.7501 47.3498 22.0931C47.3477 22.2635 47.3554 22.4387 47.3637 22.6242L47.3644 22.6403C47.3897 23.199 47.4183 23.8321 47.135 24.1285Z" fill="#404A7B"/>
<path d="M44.5937 35.0477C44.3867 34.8896 44.152 34.7103 43.9412 34.5406C43.9284 34.5302 43.9152 34.5202 43.9017 34.5103L39.6067 31.3912C39.6025 31.3881 39.5982 31.385 39.594 31.382C37.9042 30.1951 36.3536 29.6181 34.8533 29.6181C32.7629 29.6181 30.9706 30.727 29.5259 32.9143C29.0616 33.6179 28.6487 33.7127 28.306 33.7127C27.9647 33.7127 27.536 33.6 27.066 33.3867C22.3998 31.2707 19.0719 28.0362 17.1752 23.7729C16.3053 21.8183 16.7721 21.0032 17.872 20.2561C18.9202 19.5447 21.101 18.0644 20.943 15.1659C20.8278 13.0447 18.1943 9.30087 17.3899 8.20399C16.5849 7.10624 13.8048 3.46835 11.8267 2.7411C10.564 2.27675 9.24214 2.27059 7.8981 2.72284C4.79537 3.76591 2.55699 5.62284 1.42457 8.09305C0.326617 10.4883 0.364898 13.2733 1.5356 16.1471C4.66334 23.8257 9.06343 30.5225 14.6135 36.0517C21.1235 42.5377 27.6273 46.8514 34.4966 49.2392C35.1772 49.4759 36.545 49.8893 37.3182 49.9913C37.3615 49.9971 37.4052 49.9999 37.4489 49.9999C39.3953 49.9999 41.542 49.1819 43.4935 47.6966C45.4252 46.2264 46.8755 44.3249 47.5775 42.3424C48.975 38.3964 46.3385 36.3813 44.5937 35.0477ZM45.6999 41.6777C44.5354 44.9672 40.6502 47.9648 37.5164 48.0075C36.9322 47.9173 35.7849 47.5783 35.1509 47.3579C28.5707 45.0704 22.3128 40.9105 16.0197 34.6407C10.6595 29.3006 6.40718 22.8257 3.38062 15.3956C2.42252 13.044 2.37232 10.8057 3.2355 8.92304C4.13277 6.96542 5.96461 5.4743 8.53306 4.61083C8.98472 4.45897 9.42984 4.3828 9.86529 4.3828C10.3005 4.3828 10.7261 4.45878 11.1393 4.61063C11.8945 4.88817 13.67 6.4997 15.7835 9.38173C17.8985 12.2659 18.9095 14.4578 18.9539 15.2738C19.0431 16.9113 17.9157 17.8186 16.753 18.6079C14.6569 20.0318 14.1996 21.9861 15.355 24.5826C17.456 29.3047 21.1194 32.8772 26.2429 35.2006C26.9796 35.5351 27.6738 35.7047 28.306 35.7047C29.4772 35.7047 30.447 35.135 31.1882 34.012C32.2558 32.3958 33.4546 31.6101 34.8534 31.6101C35.9282 31.6101 37.1024 32.0673 38.4428 33.0078L42.7115 36.1078C42.9366 36.2886 43.1744 36.4701 43.3845 36.6307C45.3349 38.1214 46.5498 39.278 45.6999 41.6777Z" fill="#404A7B"/>
<path d="M34.8856 22.8663C34.9 20.9554 33.9253 18.8166 32.2755 17.1406C30.5986 15.4373 28.5481 14.4873 26.6539 14.5325C26.6535 14.5325 26.652 14.5325 26.6515 14.5326C26.0142 14.5488 24.0747 14.5981 23.4026 16.5485C23.017 17.6663 23.2777 18.4714 23.5642 18.9499C24.1571 19.9401 25.1927 20.2217 26.0293 20.3566C27.9892 20.671 28.8712 21.6243 29.0736 23.6465C29.2381 25.2966 30.4459 26.4942 31.9457 26.4942C32.0612 26.4942 32.1769 26.4872 32.2863 26.4739C33.0985 26.3773 34.9741 25.8322 34.8856 22.8663ZM32.0477 24.496C32.0149 24.5 31.9806 24.5021 31.9456 24.5021C31.4035 24.5021 31.1081 23.9732 31.0558 23.4485C30.7655 20.5467 29.1805 18.8446 26.3456 18.3897C25.7289 18.2904 25.4082 18.1519 25.2733 17.9266C25.2359 17.8639 25.1218 17.6734 25.286 17.1976C25.4733 16.6536 25.9099 16.5439 26.7021 16.5238C28.0528 16.4943 29.5639 17.2253 30.8561 18.5376C32.1481 19.8501 32.9098 21.468 32.8937 22.8655C32.8935 22.8802 32.8937 22.895 32.8942 22.9097C32.9427 24.3896 32.3626 24.4585 32.0477 24.496Z" fill="#404A7B"/>
<path d="M23.704 37.0589C21.9012 35.7139 20.1311 34.1699 18.293 32.3384C16.8799 30.9306 15.5514 29.3986 14.3439 27.7847C14.0143 27.3442 13.3902 27.2543 12.9497 27.5838C12.5093 27.9133 12.4193 28.5376 12.7488 28.978C14.0138 30.6687 15.4059 32.2741 16.887 33.7495C18.793 35.6485 20.6332 37.2533 22.5129 38.6555C22.6917 38.7889 22.9006 38.8533 23.1077 38.8533C23.4113 38.8533 23.7112 38.7148 23.9068 38.4529C24.2356 38.0119 24.1449 37.3879 23.704 37.0589Z" fill="#404A7B"/>
<path d="M12.0436 24.3822C11.8669 24.0923 11.6919 23.7973 11.523 23.5054C11.2476 23.0292 10.6383 22.8664 10.1622 23.1417C9.68599 23.4171 9.5231 24.0264 9.79849 24.5026C9.97476 24.8075 10.1579 25.1158 10.3424 25.4187C10.5301 25.7267 10.858 25.8966 11.1939 25.8966C11.3706 25.8966 11.5495 25.8496 11.7113 25.751C12.181 25.4649 12.3298 24.852 12.0436 24.3822Z" fill="#404A7B"/>
</svg>
