<svg width="360" height="206" viewBox="0 0 360 206" fill="none" xmlns="http://www.w3.org/2000/svg">
    <rect width="360" height="206" fill="#C4C4C4"/>
    <path d="M212.029 132.734H146.971C143.021 132.734 140 129.797 140 125.957V80.777C140 76.9367 143.021 74 146.971 74H212.029C215.979 74 219 76.9367 219 80.777V125.957C219 129.797 215.979 132.734 212.029 132.734ZM146.971 78.518C145.576 78.518 144.647 79.4216 144.647 80.777V125.957C144.647 127.312 145.576 128.216 146.971 128.216H212.029C213.424 128.216 214.353 127.312 214.353 125.957V80.777C214.353 79.4216 213.424 78.518 212.029 78.518H146.971Z" fill="white"/>
    <path d="M191.118 101.108C186.006 101.108 181.824 97.0418 181.824 92.072C181.824 87.1022 186.006 83.036 191.118 83.036C196.23 83.036 200.412 87.1022 200.412 92.072C200.412 97.0418 196.23 101.108 191.118 101.108ZM191.118 87.554C188.562 87.554 186.471 89.5871 186.471 92.072C186.471 94.5569 188.562 96.59 191.118 96.59C193.674 96.59 195.765 94.5569 195.765 92.072C195.765 89.5871 193.674 87.554 191.118 87.554Z" fill="white"/>
    <path d="M203.433 132.056L165.559 97.4934L143.95 116.921L140.697 113.758L165.559 91.1683L206.686 128.893L203.433 132.056Z" fill="white"/>
    <path d="M215.282 120.761L202.735 110.822L192.279 119.18L189.259 115.566L202.735 104.949L218.071 117.147L215.282 120.761Z" fill="white"/>
</svg>
